HIERARCHY
ROOT ui
{
	 OFFSET 0 0 0
	 CHANNELS 3 XPosition YPosition Z Position
	 EndSite
	 {
	 OFFSET 0 -1 0
	 }
}
ROOT li
{
	 OFFSET 0 0 0
	 CHANNELS 3 XPosition YPosition Z Position
	 EndSite
	 {
	 OFFSET 0 -1 0
	 }
}
ROOT ul
{
	 OFFSET 0 0 0
	 CHANNELS 3 XPosition YPosition Z Position
	 EndSite
	 {
	 OFFSET 0 -1 0
	 }
}
ROOT ll
{
	 OFFSET 0 0 0
	 CHANNELS 3 XPosition YPosition Z Position
	 EndSite
	 {
	 OFFSET 0 -1 0
	 }
}
ROOT tt
{
	 OFFSET 0 0 0
	 CHANNELS 3 XPosition YPosition Z Position
	 EndSite
	 {
	 OFFSET 0 -1 0
	 }
}
ROOT tb
{
	 OFFSET 0 0 0
	 CHANNELS 3 XPosition YPosition Z Position
	 EndSite
	 {
	 OFFSET 0 -1 0
	 }
}
ROOT td
{
	 OFFSET 0 0 0
	 CHANNELS 3 XPosition YPosition Z Position
	 EndSite
	 {
	 OFFSET 0 -1 0
	 }
}
ROOT v
{
	 OFFSET 0 0 0
	 CHANNELS 3 XPosition YPosition Z Position
	 EndSite
	 {
	 OFFSET 0 -1 0
	 }
}
ROOT bn
{
	 OFFSET 0 0 0
	 CHANNELS 3 XPosition YPosition Z Position
	 EndSite
	 {
	 OFFSET 0 -1 0
	 }
}
MOTION
Frames: 16
Frame Time: 0.002
-0.004289094924926758	-0.0011183760166168213	0		0.5020643615722656	-2.381753173828125	0		-1.090763427734375	0.13570057678222655	0		-0.6295256958007812	-2.649110595703125	0		1.6161646728515624	-0.6927589721679688	0		3.201490234375	0.005584634780883789	0		4.72675439453125	0.15302206420898437	0		5.683681640625	0.21732315063476562	0		-0.13090042114257813	5.95261865234375	0		
-0.008191059112548828	-0.0042939138412475585	0		0.5174830932617187	-2.37627978515625	0		-1.0217283325195312	0.12899972534179688	0		-0.5613412475585937	-2.656763427734375	0		1.6123046875	-0.6958361206054687	0		3.188589599609375	0.0027837278842926024	0		4.72590234375	0.15307322692871095	0		5.67894921875	0.23500933837890625	0		-0.13308432006835938	5.95339453125	0		
-0.001932929039001465	0.0013190829753875733	0		0.49335406494140627	-2.39703125	0		-1.0924830322265624	0.1350859375	0		-0.6519813232421875	-2.653249755859375	0		1.6224847412109376	-0.6962025146484375	0		3.18772900390625	0.00273301100730896	0		4.7181533203125	0.15925489807128906	0		5.6824765625	0.21767448425292968	0		-0.13234912109375	5.95110107421875	0		
0.02525922203063965	0.0035097410678863526	0		0.5148910522460938	-2.384693359375	0		-1.0793160400390625	0.1364891357421875	0		-0.6136309204101562	-2.65131689453125	0		1.600589599609375	-0.6999384765625	0		3.223879638671875	0.0029379470348358154	0		4.71626220703125	0.1583079528808594	0		5.68481787109375	0.22979550170898438	0		-0.11839469909667968	5.95954150390625	0		
-5.642420053482056E-4	0.004751303195953369	0		0.4784270935058594	-2.372207275390625	0		-1.090150146484375	0.13736898803710937	0		-0.6251436767578125	-2.6423916015625	0		1.6180562744140625	-0.6864595947265625	0		3.193235595703125	0.013463467597961425	0		4.730541015625	0.16502940368652344	0		5.67712841796875	0.2354532012939453	0		-0.13574581909179687	5.95159765625	0		
0.020531023025512695	6.194199994206429E-5	0		0.524469970703125	-2.38636279296875	0		-1.095037353515625	0.13413348388671875	0		-0.6288983764648437	-2.64662109375	0		1.614214111328125	-0.68956640625	0		3.190058349609375	-0.0045737547874450685	0		4.7255927734375	0.15911366271972657	0		5.674767578125	0.1923702850341797	0		-0.2703020935058594	5.9319677734375	0		
-0.00930642604827881	-0.002618298053741455	0		0.462093505859375	-2.37137060546875	0		-1.0958280029296874	0.13382518005371094	0		-0.6064557495117188	-2.6423603515625	0		1.61138623046875	-0.6936988525390625	0		3.189274658203125	-0.004667541980743408	0		4.72168310546875	0.15315704345703124	0		5.6700751953125	0.20991844177246094	0		-0.13797517395019532	5.95107470703125	0		
0.01900865364074707	-4.3933099508285524E-4	0		0.506058349609375	-2.39248095703125	0		-1.090671875	0.12840977478027343	0		-0.6522451171875	-2.650750244140625	0		1.5796649169921875	-0.69426708984375	0		3.188536376953125	-0.004775566101074219	0		4.7140576171875	0.15925360107421874	0		5.66542724609375	0.22914718627929687	0		-0.13897795104980468	5.95081884765625	0		
-0.003594701051712036	0.0037486140727996825	0		0.48362466430664064	-2.384275146484375	0		-1.0932054443359376	0.13616209411621094	0		-0.6148179321289062	-2.65076513671875	0		1.6151553955078124	-0.687158935546875	0		3.18298876953125	0.0021988770961761475	0		4.72748046875	0.1649134063720703	0		5.6690654296875	0.2098638610839844	0		-0.12567760467529296	5.96129296875	0		
0.02075212860107422	0.0020227370262145996	0		0.5261204223632813	-2.38233935546875	0		-1.09383837890625	0.1358922119140625	0		-0.6719614868164062	-2.629906982421875	0		1.5755947265625	-0.6845809326171876	0		3.191319091796875	-1.14485003054142E-4	0		4.7268466796875	0.16482391357421874	0		5.66449462890625	0.2289854431152344	0		-0.1407039031982422	5.95032958984375	0		
-0.004791506767272949	0.0032857630252838134	0		0.49761248779296874	-2.382005859375	0		-1.0245010986328125	0.13027099609375	0		-0.5707039794921875	-2.6431435546875	0		1.6088597412109376	-0.694435302734375	0		3.205748291015625	-5.615440011024475E-4	0		4.71904150390625	0.1528450164794922	0		5.67049462890625	0.22678077697753907	0		-0.27579373168945315	5.9317265625	0		
0.01661998748779297	-0.0013602190017700194	0		0.5210376586914063	-2.38768359375	0		-1.1048763427734376	0.13760395812988283	0		-0.640042236328125	-2.636019287109375	0		1.608363525390625	-0.6946289672851562	0		3.1812861328125	0.0017363590002059937	0		4.72164990234375	0.15863533020019532	0		5.66718505859375	0.2145706481933594	0		-0.14297840881347657	5.950900390625	0		
-0.008819730758666992	-0.001076740026473999	0		0.47959307861328127	-2.388084716796875	0		-1.0935194091796876	0.12716029357910155	0		-0.6276132202148438	-2.64348095703125	0		1.624528076171875	-0.7151552124023437	0		3.180841552734375	0.0015463789701461793	0		4.7119326171875	0.14463154602050782	0		5.66044970703125	0.2145668487548828	0		-0.27587649536132813	5.9302802734375	0		
0.01884880256652832	0.0011808340549468994	0		0.5092317504882813	-2.3868681640625	0		-1.0857681884765624	0.13381282043457032	0		-0.6459859619140625	-2.642320556640625	0		1.5944002685546874	-0.7017718505859375	0		3.20249169921875	0.0029082539081573488	0		4.70980322265625	0.15745440673828126	0		5.66954296875	0.22585850524902343	0		-0.1276390380859375	5.95918603515625	0		
-0.003396785020828247	0.005427980899810791	0		0.50887353515625	-2.387056884765625	0		-1.0180293579101563	0.1363123321533203	0		-0.590358154296875	-2.643591064453125	0		1.6123338623046874	-0.6883294067382812	0		3.18322607421875	0.006056721210479736	0		4.720494140625	0.15799705505371095	0		5.66635888671875	0.21344847106933593	0		-0.1430848388671875	5.94930078125	0		
0.015186545372009277	-0.002113465070724487	0		0.4858082275390625	-2.373789794921875	0		-1.1004044189453126	0.13177020263671874	0		-0.6724173583984375	-2.6291455078125	0		1.6089857177734375	-0.691473388671875	0		3.184714599609375	-0.006215353012084961	0		4.7102236328125	0.15792660522460938	0		5.66319580078125	0.19925521850585937	0		-0.27664559936523436	5.9297431640625	0		
